<mxfile host="app.diagrams.net" modified="2024-04-25T00:14:17.794Z" agent="Mozilla/5.0 (Windows NT 10.0; Win64; x64) AppleWebKit/537.36 (KHTML, like Gecko) Chrome/124.0.0.0 Safari/537.36" version="24.3.0" etag="b9rLgP3LhtkqCiebY6Kn" type="github">
  <diagram name="Page-1" id="QLvi3QrojBzidMQFNnf-">
    <mxGraphModel>
      <root>
        <mxCell id="0" />
        <mxCell id="1" parent="0" />
      </root>
    </mxGraphModel>
  </diagram>
</mxfile>
